<?xml version="1.0" standalone="no"?> <!DOCTYPE svg PUBLIC "-//W3C//DTD SVG 20010904//EN" "http://www.w3.org/TR/2001/REC-SVG-20010904/DTD/svg10.dtd"> <svg version="1.0" xmlns="http://www.w3.org/2000/svg" width="1800.000000pt" height="1800.000000pt" viewBox="0 0 1800.000000 1800.000000" preserveAspectRatio="xMidYMid meet"> <g transform="translate(0.000000,1800.000000) scale(0.100000,-0.100000)" fill="#000000" stroke="none"> <path d="M14910 16950 c-58 -5 -184 -13 -280 -19 -96 -5 -193 -14 -215 -20 -22 -6 -72 -11 -111 -11 -39 0 -93 -7 -120 -15 -27 -8 -72 -15 -100 -15 -28 0 -71 -7 -94 -15 -23 -8 -61 -15 -85 -15 -23 0 -64 -7 -91 -15 -27 -8 -66 -15 -87 -15 -21 0 -54 -7 -74 -15 -19 -8 -54 -15 -77 -15 -22 -1 -52 -7 -66 -15 -14 -8 -46 -14 -71 -15 -25 0 -54 -7 -65 -15 -10 -8 -40 -15 -65 -15 -25 0 -54 -7 -65 -15 -10 -8 -37 -15 -59 -15 -22 0 -51 -7 -65 -15 -14 -8 -39 -14 -56 -15 -18 0 -45 -7 -60 -15 -16 -8 -42 -15 -59 -15 -16 -1 -41 -7 -55 -15 -14 -8 -39 -14 -56 -15 -16 0 -39 -7 -50 -15 -10 -8 -35 -15 -54 -15 -19 0 -44 -7 -54 -15 -11 -8 -31 -15 -44 -15 -13 0 -33 -5 -45 -12 -12 -6 -38 -15 -57 -19 -43 -9 -96 -27 -133 -45 -16 -8 -43 -14 -62 -14 -18 0 -38 -7 -45 -15 -7 -8 -28 -15 -47 -15 -21 0 -36 -6 -39 -15 -4 -9 -19 -15 -39 -15 -18 0 -38 -7 -45 -15 -7 -8 -24 -15 -39 -15 -14 0 -35 -7 -45 -15 -11 -8 -33 -15 -48 -15 -16 0 -31 -7 -34 -15 -4 -9 -19 -15 -39 -15 -18 0 -38 -7 -45 -15 -7 -8 -22 -15 -34 -15 -12 0 -31 -7 -42 -15 -10 -8 -32 -15 -47 -15 -15 0 -30 -7 -33 -15 -4 -8 -18 -15 -34 -15 -15 0 -33 -7 -40 -15 -7 -8 -23 -15 -35 -15 -13 0 -38 -8 -57 -17 -18 -9 -45 -22 -60 -30 -14 -7 -33 -13 -41 -13 -8 0 -20 -7 -27 -15 -7 -8 -25 -15 -40 -15 -15 0 -33 -7 -40 -15 -7 -8 -23 -15 -37 -15 -13 0 -26 -7 -29 -15 -4 -8 -18 -15 -34 -15 -15 0 -33 -7 -40 -15 -7 -8 -18 -15 -24 -15 -7 0 -39 -13 -71 -30 -32 -16 -66 -30 -76 -30 -9 0 -22 -7 -29 -15 -7 -8 -21 -15 -31 -15 -9 0 -24 -7 -33 -15 -8 -8 -18 -15 -22 -15 -9 0 -79 -33 -261 -122 -85 -41 -143 -75 -143 -84 0 -10 -7 -13 -23 -9 -15 4 -28 1 -36 -9 -8 -9 -18 -16 -24 -16 -5 0 -32 -13 -59 -30 -26 -16 -55 -30 -63 -30 -9 0 -18 -7 -21 -15 -4 -8 -12 -15 -20 -15 -13 0 -62 -25 -119 -60 -16 -10 -52 -31 -80 -45 -27 -14 -63 -35 -80 -45 -16 -11 -37 -23 -45 -27 -8 -3 -33 -18 -55 -32 -56 -36 -77 -49 -100 -61 -11 -6 -33 -19 -50 -30 -16 -11 -36 -23 -44 -27 -8 -3 -53 -33 -100 -65 -47 -32 -89 -58 -94 -58 -4 0 -13 -5 -20 -11 -11 -10 -121 -83 -155 -104 -10 -5 -21 -16 -25 -22 -4 -7 -13 -13 -18 -13 -6 0 -46 -27 -88 -60 -43 -33 -83 -60 -89 -60 -7 0 -12 -5 -12 -10 0 -6 -8 -14 -17 -17 -19 -7 -32 -17 -64 -45 -10 -10 -23 -18 -28 -18 -5 0 -15 -7 -22 -16 -8 -9 -47 -43 -89 -75 -92 -72 -159 -125 -185 -147 -11 -9 -56 -46 -99 -82 -204 -169 -638 -604 -756 -758 -19 -26 -40 -51 -46 -57 -23 -20 -237 -314 -284 -390 -36 -57 -105 -172 -118 -195 -7 -14 -22 -38 -32 -55 -11 -16 -22 -37 -26 -45 -3 -8 -10 -22 -15 -30 -5 -8 -12 -22 -15 -30 -11 -29 -37 -85 -46 -100 -4 -8 -11 -22 -14 -30 -3 -8 -12 -27 -20 -42 -8 -14 -14 -33 -14 -41 0 -8 -7 -20 -15 -27 -8 -7 -15 -22 -15 -34 0 -12 -7 -31 -15 -42 -8 -10 -15 -31 -15 -45 0 -15 -7 -32 -15 -39 -8 -7 -15 -25 -15 -39 0 -15 -7 -36 -15 -47 -8 -10 -15 -33 -15 -50 0 -16 -7 -39 -15 -50 -8 -10 -15 -35 -15 -54 0 -19 -7 -44 -15 -54 -8 -11 -15 -39 -15 -63 0 -24 -6 -54 -14 -66 -7 -12 -16 -52 -19 -89 -4 -38 -12 -78 -18 -90 -9 -17 -13 -107 -13 -323 0 -263 2 -304 17 -332 9 -18 17 -51 17 -75 1 -24 7 -54 15 -68 8 -14 14 -39 15 -56 0 -17 7 -37 15 -44 8 -7 15 -21 15 -32 0 -24 42 -118 52 -118 5 0 8 -11 8 -24 0 -13 7 -29 15 -36 8 -7 15 -16 15 -21 0 -19 74 -131 165 -247 28 -37 207 -213 255 -252 30 -25 64 -53 75 -63 11 -10 37 -27 57 -38 20 -10 39 -23 42 -28 8 -13 170 -112 259 -158 26 -14 50 -29 53 -34 3 -5 16 -9 29 -9 12 0 25 -7 29 -15 3 -8 11 -15 18 -15 7 0 42 -14 78 -31 36 -17 81 -37 100 -46 19 -8 42 -19 50 -24 8 -5 20 -11 25 -13 6 -1 26 -9 45 -16 19 -7 47 -15 62 -17 15 -3 33 -11 39 -19 6 -8 24 -14 39 -14 15 0 33 -7 40 -15 7 -8 25 -15 39 -15 15 0 36 -7 47 -15 10 -8 30 -15 44 -15 14 0 34 -6 45 -14 11 -7 34 -16 50 -18 17 -3 45 -11 63 -17 83 -28 99 -33 132 -40 19 -4 45 -13 57 -19 12 -7 34 -12 50 -12 15 -1 39 -7 53 -15 14 -8 41 -15 60 -15 19 0 46 -7 60 -15 14 -8 41 -15 60 -15 19 0 46 -7 60 -15 14 -8 36 -14 49 -15 13 0 47 -6 75 -14 82 -23 148 -38 196 -46 25 -4 65 -12 90 -18 131 -31 188 -42 213 -42 15 0 44 -7 64 -15 19 -8 52 -15 73 -15 21 0 57 -7 80 -15 23 -8 59 -15 80 -15 21 0 54 -7 73 -15 20 -8 56 -15 80 -15 25 0 64 -7 87 -15 23 -8 61 -15 84 -15 22 0 54 -7 70 -15 15 -8 50 -15 77 -15 28 0 66 -7 86 -15 19 -8 56 -15 82 -15 25 -1 64 -7 86 -15 22 -8 60 -15 85 -15 25 0 56 -7 70 -15 14 -8 48 -14 76 -15 29 0 65 -7 80 -15 16 -8 48 -15 72 -15 23 0 59 -7 79 -15 19 -8 58 -15 85 -15 31 0 55 -6 64 -15 9 -9 34 -15 60 -15 25 0 61 -7 81 -15 19 -8 48 -15 63 -15 15 0 44 -7 63 -15 20 -8 51 -15 69 -15 18 -1 44 -7 58 -15 14 -8 41 -15 60 -15 19 0 46 -7 60 -15 14 -8 39 -15 55 -15 17 0 41 -7 55 -15 14 -8 36 -14 48 -15 13 0 38 -6 55 -14 18 -8 43 -16 57 -19 33 -6 88 -26 123 -43 16 -8 39 -14 51 -14 12 0 31 -7 42 -15 10 -8 27 -15 36 -15 10 0 46 -14 80 -31 35 -17 77 -37 93 -44 70 -29 125 -57 130 -66 4 -5 15 -9 25 -9 10 0 23 -6 27 -12 8 -13 36 -33 63 -45 20 -8 135 -98 184 -143 48 -44 156 -184 156 -202 0 -8 5 -19 12 -26 15 -15 35 -69 56 -152 19 -77 21 -226 3 -290 -7 -25 -19 -70 -28 -100 -17 -63 -41 -128 -54 -150 -5 -8 -12 -22 -15 -30 -3 -8 -9 -22 -14 -30 -5 -8 -21 -37 -35 -65 -14 -27 -35 -63 -45 -80 -11 -16 -23 -37 -27 -45 -19 -41 -141 -210 -175 -243 -10 -10 -18 -21 -18 -25 0 -4 -20 -28 -43 -53 -23 -25 -60 -68 -82 -95 -51 -63 -396 -408 -499 -499 -43 -39 -84 -75 -90 -81 -6 -6 -54 -46 -106 -89 -52 -43 -106 -89 -120 -101 -48 -43 -375 -301 -420 -332 -14 -9 -78 -56 -142 -104 -64 -48 -122 -88 -128 -88 -5 0 -10 -4 -10 -8 0 -7 -128 -100 -188 -137 -15 -9 -22 -14 -54 -40 -7 -6 -31 -22 -53 -35 -22 -13 -42 -27 -45 -30 -3 -4 -41 -29 -85 -58 -44 -28 -84 -55 -90 -59 -14 -11 -182 -126 -203 -138 -9 -5 -35 -21 -57 -35 -22 -14 -48 -29 -57 -33 -10 -3 -18 -11 -18 -17 0 -5 -9 -10 -20 -10 -11 0 -20 -5 -20 -10 0 -6 -10 -15 -22 -20 -13 -5 -68 -39 -123 -75 -55 -36 -110 -69 -122 -74 -11 -6 -24 -15 -28 -20 -3 -6 -15 -11 -26 -11 -10 0 -19 -5 -19 -10 0 -6 -10 -15 -22 -20 -24 -10 -32 -15 -106 -62 -24 -16 -45 -28 -49 -28 -3 0 -24 -13 -47 -28 -22 -15 -48 -31 -56 -35 -8 -4 -28 -16 -45 -27 -16 -11 -39 -24 -50 -30 -11 -6 -33 -19 -50 -29 -16 -11 -50 -31 -75 -44 -25 -14 -61 -34 -80 -46 -19 -11 -42 -24 -50 -28 -8 -4 -42 -23 -75 -43 -33 -20 -91 -54 -130 -75 -38 -21 -97 -54 -130 -72 -33 -19 -73 -41 -90 -49 -16 -8 -57 -30 -90 -49 -33 -19 -96 -53 -140 -75 -44 -23 -107 -57 -140 -76 -33 -18 -67 -36 -75 -40 -8 -3 -28 -13 -45 -22 -110 -61 -753 -384 -955 -480 -52 -25 -102 -49 -110 -54 -8 -4 -22 -11 -30 -14 -8 -4 -51 -24 -95 -44 -96 -45 -229 -107 -270 -125 -58 -26 -170 -78 -197 -91 -14 -8 -33 -14 -41 -14 -8 0 -20 -7 -27 -15 -7 -8 -20 -15 -29 -15 -9 0 -45 -14 -81 -32 -36 -17 -80 -37 -97 -45 -54 -23 -95 -40 -166 -72 -37 -17 -71 -31 -76 -31 -5 0 -22 -6 -38 -14 -15 -8 -44 -21 -63 -29 -19 -9 -51 -23 -72 -31 -20 -9 -41 -16 -46 -16 -6 0 -23 -6 -39 -14 -45 -23 -100 -46 -111 -46 -6 0 -25 -8 -44 -17 -18 -9 -45 -22 -60 -30 -14 -7 -33 -13 -41 -13 -9 0 -28 -6 -44 -14 -37 -19 -87 -40 -148 -61 -27 -9 -62 -23 -77 -31 -14 -8 -34 -14 -45 -14 -10 0 -27 -7 -37 -15 -11 -8 -29 -15 -40 -15 -12 0 -30 -7 -40 -15 -11 -8 -29 -15 -40 -15 -12 0 -30 -7 -40 -15 -11 -8 -29 -15 -41 -15 -12 0 -25 -4 -31 -9 -5 -5 -25 -14 -44 -19 -39 -11 -94 -30 -125 -43 -33 -14 -108 -40 -140 -49 -28 -8 -51 -16 -135 -45 -127 -45 -228 -77 -311 -98 -30 -8 -65 -19 -77 -26 -11 -6 -32 -11 -46 -11 -14 0 -27 -4 -30 -9 -4 -5 -25 -12 -49 -16 -23 -4 -50 -11 -59 -16 -10 -5 -37 -14 -60 -19 -24 -5 -74 -18 -113 -29 -81 -25 -148 -41 -330 -81 -27 -6 -65 -16 -82 -21 -18 -6 -54 -14 -80 -19 -27 -4 -75 -13 -108 -20 -205 -40 -378 -67 -475 -74 -30 -2 -122 -9 -203 -16 -148 -13 -225 -10 -463 20 -164 20 -326 92 -419 185 -66 65 -90 99 -119 160 -10 22 -23 47 -27 57 -4 9 -17 54 -28 101 -23 94 -28 286 -10 367 6 25 14 65 18 90 4 25 13 61 19 80 59 178 78 233 91 258 5 9 40 80 77 157 37 77 70 142 73 145 8 7 26 36 58 98 15 28 31 52 35 52 4 0 8 4 8 9 0 13 125 204 170 260 8 11 22 29 30 41 12 18 43 60 92 125 4 6 27 35 50 65 24 30 66 84 92 120 27 36 54 70 60 75 6 6 29 33 51 60 36 45 85 102 125 144 8 9 40 45 70 80 30 36 66 76 80 91 14 14 70 75 125 136 167 183 615 625 915 904 35 33 289 265 334 305 24 22 163 143 195 171 19 16 41 36 50 45 57 56 275 199 303 199 8 0 19 5 25 11 6 6 26 14 44 19 19 5 66 18 104 30 46 14 111 23 192 27 128 6 166 -1 273 -50 54 -25 52 -23 145 -113 70 -68 76 -72 132 -78 71 -8 168 2 205 20 15 8 36 14 46 14 11 0 25 7 32 15 7 8 18 15 26 15 16 0 154 82 205 122 20 15 42 28 48 28 6 0 11 4 11 9 0 5 13 17 29 28 82 52 359 322 439 428 25 33 50 65 56 70 6 6 16 18 21 27 6 9 32 49 60 90 27 40 64 105 83 143 18 39 41 85 50 104 23 47 22 203 -1 229 -10 10 -17 23 -17 28 0 28 -140 144 -174 144 -7 0 -19 7 -26 15 -7 8 -27 15 -46 15 -18 0 -35 4 -38 9 -3 4 -31 11 -63 15 -74 9 -199 -20 -283 -65 -20 -11 -91 -45 -110 -53 -8 -3 -28 -15 -45 -26 -16 -11 -37 -22 -45 -26 -8 -3 -22 -10 -30 -15 -8 -5 -37 -20 -65 -34 -27 -14 -57 -30 -65 -35 -8 -5 -22 -11 -30 -14 -8 -4 -37 -20 -65 -37 -27 -16 -63 -37 -80 -45 -16 -8 -57 -30 -90 -49 -33 -19 -82 -46 -110 -60 -27 -14 -63 -35 -80 -45 -16 -11 -37 -23 -45 -27 -8 -4 -55 -31 -105 -61 -49 -30 -98 -58 -110 -63 -11 -5 -36 -19 -55 -30 -199 -120 -627 -378 -648 -391 -15 -10 -34 -21 -42 -25 -8 -3 -17 -9 -20 -13 -4 -5 -74 -48 -165 -103 -11 -7 -36 -24 -55 -38 -19 -14 -39 -28 -45 -30 -12 -5 -86 -53 -409 -268 -137 -91 -256 -170 -264 -176 -9 -5 -52 -36 -94 -68 -43 -31 -81 -57 -83 -57 -2 0 -58 -39 -124 -87 -65 -49 -129 -95 -141 -103 -21 -14 -102 -74 -125 -92 -14 -12 -140 -108 -183 -141 -49 -37 -73 -55 -166 -129 -43 -35 -105 -83 -136 -108 -91 -71 -163 -130 -190 -153 -14 -12 -52 -45 -85 -72 -90 -75 -108 -91 -256 -226 -52 -48 -112 -102 -133 -120 -67 -57 -396 -389 -486 -489 -47 -52 -87 -97 -91 -100 -38 -35 -302 -365 -359 -450 -8 -12 -20 -28 -25 -34 -13 -14 -94 -138 -125 -191 -13 -22 -27 -42 -31 -45 -4 -3 -13 -17 -19 -30 -5 -14 -24 -47 -40 -75 -41 -71 -123 -239 -151 -310 -13 -33 -27 -64 -31 -69 -4 -6 -8 -17 -8 -25 0 -9 -7 -29 -15 -45 -8 -15 -15 -38 -15 -50 -1 -11 -7 -32 -15 -46 -8 -14 -14 -36 -15 -50 0 -14 -6 -45 -14 -70 -37 -118 -50 -233 -50 -460 -1 -185 2 -239 17 -305 24 -104 47 -182 64 -222 7 -17 13 -35 13 -40 0 -33 151 -283 216 -358 85 -99 169 -179 249 -238 28 -20 55 -40 60 -44 33 -25 102 -71 115 -76 8 -4 29 -16 45 -27 17 -11 37 -23 45 -26 8 -4 49 -22 90 -41 41 -19 84 -39 95 -43 11 -5 41 -18 67 -29 26 -12 52 -21 58 -21 5 0 18 -4 28 -9 9 -5 44 -16 77 -26 33 -9 78 -23 100 -31 23 -8 53 -14 68 -14 16 0 37 -5 48 -10 23 -13 145 -37 249 -50 41 -5 84 -12 95 -15 31 -9 353 -35 513 -42 147 -6 618 19 717 38 28 5 93 13 145 18 52 5 102 12 110 15 8 3 49 10 90 16 41 5 111 16 155 24 44 9 107 20 140 26 33 6 76 16 95 20 106 28 169 43 205 51 22 4 60 13 85 19 132 35 159 42 204 56 26 7 56 14 65 14 9 0 25 7 35 15 11 8 32 15 47 15 15 0 40 6 56 14 40 19 127 46 151 46 11 0 25 7 32 15 7 8 25 15 40 15 16 0 41 6 57 14 57 28 104 46 123 46 10 0 21 4 25 9 3 5 19 12 36 16 17 4 42 13 57 21 15 8 34 14 42 14 8 0 24 7 34 15 11 8 28 15 38 15 10 0 26 4 36 10 30 16 111 50 121 50 5 0 22 6 38 14 15 8 48 22 73 31 25 10 54 21 65 26 11 4 45 18 75 29 30 12 64 26 75 30 11 5 45 19 75 31 96 38 124 50 152 65 14 7 33 14 41 14 9 0 28 6 44 14 26 13 51 24 135 61 18 7 49 21 70 29 20 9 39 16 44 16 4 0 36 14 71 30 34 17 71 30 82 30 10 0 24 7 31 15 7 8 23 15 35 15 12 0 28 7 35 15 7 8 18 15 26 15 13 0 76 25 104 41 8 5 22 12 30 15 8 3 29 12 45 19 17 8 48 21 70 30 22 9 54 22 70 30 17 7 41 18 55 23 14 6 55 25 92 41 37 17 70 31 74 31 4 0 34 13 68 29 33 16 84 39 111 51 28 12 64 28 80 35 17 7 59 27 95 43 36 17 83 38 105 47 22 9 67 30 100 45 33 16 92 43 130 60 39 18 98 45 132 61 35 16 93 44 130 61 38 17 75 35 83 39 8 5 22 12 30 15 100 42 780 375 980 480 25 13 122 62 215 110 94 48 197 102 230 120 33 18 83 45 110 59 28 14 77 41 110 60 33 18 96 52 140 75 44 23 96 51 115 62 76 45 136 78 157 87 11 6 24 15 28 20 3 6 15 11 26 11 10 0 19 3 19 8 0 4 21 18 48 32 26 13 99 56 162 93 63 38 124 73 135 78 11 5 34 18 50 29 17 11 39 24 50 30 11 6 34 19 50 30 17 11 39 24 50 29 11 5 36 20 55 33 19 13 42 27 50 31 8 4 27 15 41 25 25 16 191 119 234 145 11 7 36 24 56 40 20 15 40 27 45 27 4 0 15 6 23 14 9 8 32 22 51 33 35 18 211 133 220 143 8 9 160 110 165 110 4 0 66 44 229 162 33 24 64 45 70 47 5 2 15 8 21 13 5 5 96 72 200 150 105 78 192 144 195 148 3 3 33 28 68 54 35 27 75 59 89 72 14 13 29 24 32 24 4 0 20 12 37 27 41 37 68 60 129 108 28 21 55 44 60 49 6 6 39 36 75 66 196 166 651 614 772 760 20 25 76 92 123 150 48 58 97 118 111 134 13 15 24 30 24 33 0 2 19 30 43 61 23 31 54 74 67 94 14 21 28 38 33 38 4 0 7 5 7 12 0 6 24 48 54 92 29 45 64 101 77 126 14 25 36 63 49 85 25 39 69 127 108 215 11 25 32 70 45 100 14 30 29 67 32 83 4 15 11 30 16 33 5 3 9 15 9 28 0 12 7 31 15 42 8 10 15 33 15 49 0 17 7 41 15 55 8 14 14 36 15 50 0 14 7 38 15 54 8 15 15 45 15 66 0 21 7 54 15 73 8 20 15 56 15 80 0 24 7 88 15 143 17 114 19 251 4 344 -5 36 -13 101 -18 145 -4 44 -13 90 -19 102 -7 12 -12 39 -12 60 0 21 -7 47 -15 57 -8 11 -15 32 -15 46 0 14 -7 35 -15 46 -8 10 -15 31 -15 45 0 15 -7 32 -15 39 -8 7 -15 17 -15 23 0 15 -40 96 -51 103 -5 3 -9 13 -9 23 0 10 -7 24 -15 31 -8 7 -15 20 -15 30 0 10 -7 20 -15 24 -8 3 -15 10 -15 16 0 32 -201 266 -297 347 -12 10 -41 34 -64 53 -23 19 -48 41 -55 48 -7 6 -17 12 -22 12 -6 0 -12 3 -14 8 -5 11 -119 89 -163 112 -11 6 -33 19 -50 29 -16 11 -66 38 -110 61 -78 40 -96 49 -132 70 -10 6 -25 13 -33 16 -8 3 -28 12 -43 20 -16 7 -37 14 -47 14 -9 0 -23 7 -30 15 -7 8 -22 15 -34 15 -12 0 -31 7 -42 15 -10 8 -29 15 -40 15 -12 0 -27 7 -34 15 -7 8 -25 15 -39 15 -15 0 -36 7 -47 15 -10 8 -33 15 -50 15 -17 0 -37 7 -44 15 -7 8 -27 15 -44 15 -17 0 -40 7 -50 15 -11 8 -34 15 -51 15 -17 0 -40 7 -51 15 -10 8 -32 15 -49 15 -16 0 -41 7 -55 15 -14 8 -38 15 -55 15 -16 0 -41 7 -55 15 -14 8 -41 14 -61 15 -20 0 -53 7 -72 15 -20 8 -51 15 -69 15 -18 1 -44 7 -58 15 -14 8 -44 14 -68 15 -23 0 -59 7 -79 15 -19 8 -54 15 -77 15 -22 1 -59 7 -81 15 -22 8 -61 15 -86 15 -26 0 -63 7 -82 15 -20 8 -60 15 -89 15 -29 0 -71 7 -93 15 -22 8 -63 14 -91 15 -28 0 -73 7 -100 15 -27 8 -74 15 -104 15 -30 0 -77 7 -104 15 -27 8 -79 15 -116 15 -37 0 -87 7 -110 15 -23 8 -73 15 -110 15 -37 0 -89 7 -116 15 -27 8 -81 15 -120 15 -39 0 -93 6 -120 14 -27 8 -87 16 -134 19 -47 3 -98 10 -113 16 -16 6 -56 11 -90 11 -34 0 -87 7 -117 15 -30 8 -80 15 -110 15 -30 0 -77 7 -104 15 -27 8 -75 15 -106 15 -32 0 -77 7 -100 15 -23 8 -64 15 -90 15 -26 0 -67 7 -90 15 -23 8 -62 15 -87 15 -24 0 -60 7 -80 15 -19 8 -53 15 -74 15 -21 0 -56 6 -76 14 -21 8 -60 17 -88 20 -27 4 -54 11 -59 16 -6 6 -23 10 -38 10 -16 0 -45 7 -65 15 -19 8 -47 15 -62 15 -14 1 -37 7 -51 15 -14 8 -36 15 -50 15 -14 0 -34 7 -44 15 -11 8 -30 15 -42 15 -12 0 -35 6 -51 14 -15 8 -48 22 -73 31 -55 21 -110 45 -130 57 -8 4 -22 11 -30 14 -8 3 -22 10 -30 15 -8 5 -22 12 -30 16 -17 7 -122 74 -130 83 -3 3 -27 23 -55 45 -27 22 -65 58 -85 80 -19 21 -43 47 -52 57 -10 10 -18 24 -18 32 0 8 -7 16 -15 20 -8 3 -15 14 -15 24 0 11 -7 25 -15 32 -8 7 -15 20 -15 29 0 9 -6 25 -14 36 -7 11 -16 38 -19 60 -3 22 -11 75 -17 118 -10 67 -10 88 4 142 9 35 16 79 16 97 1 18 7 44 15 58 8 14 14 37 15 51 0 14 7 34 15 45 8 10 15 28 15 40 0 11 7 29 15 40 8 10 15 26 15 35 0 9 7 22 15 29 8 7 15 22 15 34 0 11 7 30 15 40 8 11 15 27 15 37 0 9 7 22 15 29 8 7 15 21 15 31 0 9 7 24 15 33 8 8 15 21 15 28 1 7 12 31 25 53 14 22 27 46 30 53 3 6 7 18 10 25 3 6 14 26 25 42 11 17 24 39 30 50 6 11 19 34 30 50 11 17 24 39 30 50 6 11 19 34 30 50 11 17 23 37 27 45 3 8 18 31 32 50 14 19 31 43 36 52 32 54 129 188 137 188 4 0 8 6 8 13 0 6 14 26 30 44 17 18 30 35 30 39 0 6 22 33 100 124 21 25 55 65 75 90 21 25 40 47 44 50 3 3 44 47 90 98 126 140 288 301 484 480 32 28 59 52 62 52 2 0 19 14 37 31 18 17 60 52 93 77 33 26 69 55 80 65 11 10 48 39 83 65 34 25 62 49 62 54 0 4 5 8 10 8 6 0 16 5 23 10 17 15 299 223 322 238 11 7 28 15 38 18 9 4 17 10 17 14 0 4 30 26 68 49 37 23 76 47 86 54 11 7 49 31 84 55 35 23 70 42 78 42 8 0 14 4 14 9 0 5 21 20 46 33 26 12 49 28 51 35 3 7 11 13 19 13 8 0 33 11 55 25 22 14 50 30 62 36 12 5 36 18 52 29 17 10 54 30 83 45 52 26 63 39 40 48 -7 3 2 3 20 0 20 -4 39 0 50 8 9 8 40 25 67 39 28 14 52 28 53 33 2 4 12 7 22 7 9 0 23 7 30 15 7 8 18 15 26 15 7 0 66 27 131 60 65 33 125 60 135 60 9 0 19 4 22 9 7 11 88 51 104 51 6 0 16 8 21 18 7 13 18 17 39 14 18 -2 33 2 41 12 8 9 20 16 27 16 8 0 31 9 51 20 21 11 46 20 55 20 10 0 18 5 18 10 0 6 10 10 23 10 12 0 31 7 41 15 11 8 30 15 42 15 12 0 27 7 34 15 7 8 25 15 41 15 18 0 32 7 39 19 6 12 17 17 29 14 10 -2 32 2 49 11 17 9 40 16 50 16 11 0 25 6 31 14 10 12 8 15 -6 19 -10 2 3 2 29 -1 33 -3 55 0 72 12 14 9 36 16 49 16 13 0 32 7 43 15 10 8 30 15 44 15 14 0 34 7 44 15 11 8 34 15 50 15 17 0 40 7 50 15 11 8 30 15 43 15 13 0 37 7 52 15 16 8 47 17 70 21 23 4 44 11 47 15 3 5 22 9 43 9 20 0 46 7 57 15 10 8 35 15 54 15 19 0 46 6 61 13 14 8 49 17 79 20 29 4 58 11 64 17 5 5 33 10 62 10 34 0 56 5 64 15 8 10 31 15 67 15 29 0 70 7 90 15 19 8 57 15 83 15 26 0 67 7 90 15 23 8 73 15 110 15 37 0 87 7 110 15 28 10 81 15 159 15 64 0 151 7 194 15 92 18 423 20 502 3 28 -5 106 -13 175 -17 69 -5 138 -13 153 -19 16 -7 50 -12 77 -12 26 0 61 -7 76 -15 16 -8 45 -15 64 -15 19 -1 46 -7 60 -15 14 -8 37 -14 51 -15 14 0 34 -7 45 -15 10 -8 31 -15 45 -15 15 0 32 -7 39 -15 7 -8 20 -15 30 -15 10 0 23 -7 30 -15 7 -8 17 -15 22 -15 13 0 66 -39 120 -89 29 -27 60 -69 78 -108 28 -59 30 -71 30 -181 -1 -87 -4 -122 -15 -136 -8 -11 -15 -32 -15 -47 0 -14 -7 -32 -16 -40 -9 -7 -14 -22 -11 -36 3 -15 -1 -23 -9 -23 -13 0 -33 -30 -55 -82 -6 -16 -15 -28 -20 -28 -5 0 -9 -5 -9 -11 0 -6 -13 -28 -30 -49 -16 -21 -30 -41 -30 -45 0 -3 -6 -13 -12 -20 -19 -21 -35 -40 -87 -104 -25 -31 -60 -72 -76 -91 -43 -51 -334 -340 -343 -340 -14 -1 -53 -50 -47 -60 3 -5 0 -7 -8 -4 -8 3 -35 -14 -63 -41 -27 -25 -70 -62 -96 -83 -27 -20 -48 -40 -48 -44 0 -4 -4 -8 -9 -8 -6 0 -25 -14 -43 -31 -18 -17 -60 -51 -93 -76 -33 -26 -64 -51 -70 -58 -5 -6 -50 -41 -100 -78 -49 -37 -94 -70 -100 -75 -73 -58 -136 -102 -144 -102 -6 0 -11 -4 -11 -9 0 -5 -33 -31 -72 -58 -40 -26 -80 -54 -89 -63 -9 -8 -23 -19 -32 -25 -8 -5 -54 -37 -102 -70 -47 -33 -94 -64 -103 -70 -9 -5 -33 -22 -52 -36 -68 -51 -171 -119 -180 -119 -5 0 -13 -6 -17 -12 -9 -15 -37 -33 -70 -48 -13 -5 -23 -14 -23 -20 0 -5 -9 -10 -19 -10 -10 0 -21 -6 -24 -13 -2 -7 -22 -21 -43 -32 -22 -11 -55 -32 -75 -47 -20 -16 -41 -28 -47 -28 -6 0 -12 -3 -14 -7 -4 -9 -64 -53 -73 -53 -3 0 -27 -15 -53 -34 -27 -18 -62 -41 -78 -50 -16 -9 -42 -25 -59 -36 -16 -11 -39 -24 -50 -30 -11 -6 -29 -16 -40 -23 -83 -51 -103 -63 -120 -75 -11 -6 -31 -17 -44 -22 -13 -6 -21 -16 -18 -24 4 -9 -2 -12 -17 -9 -13 3 -28 -2 -35 -11 -8 -9 -19 -16 -27 -16 -7 0 -17 -7 -22 -16 -8 -15 -15 -15 -89 0 -44 9 -95 16 -114 16 -19 1 -45 7 -59 15 -14 8 -50 15 -80 15 -32 0 -63 7 -74 15 -12 9 -43 15 -80 15 -34 1 -72 7 -86 15 -15 8 -53 14 -95 15 -38 0 -92 7 -119 15 -72 22 -587 22 -639 0 -20 -8 -58 -15 -84 -15 -26 0 -57 -7 -67 -15 -11 -8 -34 -15 -52 -15 -17 0 -37 -7 -44 -15 -7 -8 -23 -15 -35 -15 -13 0 -36 -6 -52 -14 -15 -8 -46 -23 -68 -33 -22 -10 -56 -30 -76 -45 -20 -16 -40 -28 -44 -28 -3 0 -12 -6 -20 -12 -7 -7 -29 -26 -50 -43 -70 -58 -185 -190 -185 -213 0 -5 -7 -15 -15 -22 -8 -7 -15 -20 -15 -30 0 -10 -7 -23 -15 -30 -8 -7 -15 -23 -15 -35 0 -12 -6 -27 -13 -33 -19 -16 -43 -242 -28 -270 6 -11 11 -38 11 -60 0 -23 6 -45 15 -52 8 -7 15 -16 15 -21 0 -20 67 -107 107 -139 54 -44 160 -100 188 -100 11 0 30 -7 41 -15 11 -8 42 -14 75 -15 30 0 61 -6 67 -12 21 -21 306 -24 385 -4 35 9 88 16 118 16 30 0 67 7 83 15 15 8 47 15 70 15 22 1 52 7 66 15 14 8 41 15 60 15 19 0 46 7 60 15 14 8 41 15 60 15 19 0 44 7 54 15 11 8 34 15 50 15 17 0 40 7 50 15 11 8 31 15 45 15 14 1 37 7 51 15 14 8 36 14 48 15 13 0 36 6 50 14 40 20 93 38 129 43 18 3 38 11 44 19 6 8 21 14 33 14 12 0 30 6 41 14 11 7 31 16 45 19 32 6 88 26 120 42 14 7 37 15 53 19 15 3 27 11 27 16 0 6 15 10 34 10 18 0 39 7 46 15 7 8 18 15 25 15 8 0 28 7 47 16 77 38 90 44 108 44 9 0 23 7 30 15 7 8 23 15 35 15 12 0 28 7 35 15 7 8 23 15 35 15 12 0 28 7 35 15 7 8 20 15 30 15 9 0 37 11 61 25 24 14 51 27 59 31 8 3 42 19 75 35 33 16 68 29 78 29 10 0 20 7 23 15 4 8 17 15 31 15 13 0 31 7 39 15 9 8 24 15 35 15 11 0 22 7 25 15 4 8 14 15 24 15 10 0 25 7 34 15 8 8 19 15 24 15 12 0 204 98 216 111 6 5 18 9 28 9 10 0 21 7 24 15 4 8 12 15 18 15 7 0 33 11 57 25 24 13 67 36 94 50 28 14 64 35 80 45 17 10 54 30 83 45 28 14 52 30 52 35 0 6 8 10 19 10 10 0 24 7 31 15 7 8 16 15 21 15 8 0 132 73 207 122 15 10 36 22 47 28 27 14 48 28 120 75 84 56 98 64 118 71 9 3 17 10 17 14 0 7 92 69 123 82 9 4 17 12 17 18 0 5 4 10 10 10 12 0 159 105 259 186 24 19 53 40 65 46 12 6 25 17 29 24 4 8 15 14 22 14 8 0 15 4 15 8 0 5 21 23 46 41 25 18 56 43 69 55 12 11 44 39 71 61 27 22 71 61 99 87 27 26 53 48 57 48 11 0 378 368 419 420 20 25 39 53 42 63 4 9 12 17 19 17 7 0 24 16 37 36 13 19 35 45 48 57 12 12 23 27 23 32 0 6 12 24 28 41 32 37 49 61 62 92 5 12 14 22 20 22 5 0 10 5 10 10 0 9 35 65 50 80 3 3 15 25 28 50 13 25 32 61 43 80 19 32 35 63 75 143 8 16 14 37 14 48 0 11 7 22 15 25 8 4 15 17 15 29 0 13 6 36 14 52 23 47 38 96 44 138 2 22 11 49 18 60 8 11 14 40 14 65 0 25 7 70 15 100 20 76 20 322 0 380 -8 23 -15 64 -15 89 0 26 -7 56 -15 67 -8 10 -15 35 -15 54 0 19 -7 44 -15 54 -8 11 -15 30 -15 42 0 12 -7 27 -15 34 -8 7 -15 23 -15 36 0 12 -4 25 -9 28 -5 4 -19 27 -32 54 -12 26 -35 63 -51 83 -15 20 -28 40 -28 44 0 17 -243 265 -260 265 -5 0 -22 12 -37 26 -15 14 -37 30 -48 35 -11 5 -33 18 -50 29 -16 11 -40 24 -52 29 -11 5 -24 15 -28 20 -3 6 -14 11 -24 11 -10 0 -24 7 -31 15 -7 8 -23 15 -36 15 -13 0 -24 3 -24 8 0 10 -94 52 -118 52 -11 0 -25 7 -32 15 -7 8 -24 15 -39 15 -14 1 -37 7 -51 15 -14 8 -36 15 -50 15 -14 0 -34 7 -44 15 -11 8 -36 15 -56 15 -20 0 -41 5 -46 10 -6 6 -35 13 -65 16 -30 4 -73 12 -97 20 -23 8 -64 14 -91 14 -27 0 -68 7 -91 15 -26 9 -79 15 -139 15 -53 0 -123 5 -156 10 -83 14 -408 20 -535 10z"/> </g> </svg>